<svg xmlns="http://www.w3.org/2000/svg" viewBox="0 0 64 64">
  <defs>
    <linearGradient id="bg" x1="10" y1="8" x2="54" y2="58" gradientUnits="userSpaceOnUse">
      <stop stop-color="#2563eb" />
      <stop offset="1" stop-color="#14b8a6" />
    </linearGradient>
    <linearGradient id="glow" x1="18" y1="18" x2="48" y2="46" gradientUnits="userSpaceOnUse">
      <stop stop-color="#ffffff" stop-opacity="0.95" />
      <stop offset="1" stop-color="#dffdfa" stop-opacity="0.78" />
    </linearGradient>
  </defs>
  <rect width="64" height="64" rx="16" fill="url(#bg)" />
  <path
    d="M17 40h30a4 4 0 0 0 4-4V23a4 4 0 0 0-4-4H17a4 4 0 0 0-4 4v13a4 4 0 0 0 4 4Z"
    fill="url(#glow)"
    opacity="0.96"
  />
  <path d="M22 46h20" stroke="#e0f2fe" stroke-width="5" stroke-linecap="round" />
  <path d="M32 40v6" stroke="#e0f2fe" stroke-width="5" stroke-linecap="round" />
  <path
    d="M21 29h8l4-5 4 11 4-6h4"
    fill="none"
    stroke="#0f766e"
    stroke-width="4"
    stroke-linecap="round"
    stroke-linejoin="round"
  />
  <circle cx="48" cy="18" r="6" fill="#fbbf24" />
</svg>
